<?xml version="1.0" encoding="UTF-8" standalone="no"?>
<!DOCTYPE svg PUBLIC "-//W3C//DTD SVG 1.1//EN" "http://www.w3.org/Graphics/SVG/1.1/DTD/svg11.dtd">
<svg xmlns="http://www.w3.org/2000/svg" version="1.1" viewBox="65.00 10.00 200.00 175.00">
<g stroke-width="2.00" fill="none" stroke-linecap="butt">
<path stroke="#9ba3e0" vector-effect="non-scaling-stroke" d="
  M 85.68 140.49
  C 81.24 144.75 76.49 148.40 73.71 153.19
  C 71.23 157.45 70.95 162.93 76.73 164.53
  Q 81.99 165.97 88.85 163.53
  Q 98.81 159.98 107.29 151.77
  Q 108.89 150.22 110.71 149.04"
/>
<path stroke="#9399ca" vector-effect="non-scaling-stroke" d="
  M 110.71 149.04
  L 117.95 148.86
  A 0.47 0.47 0.0 0 1 118.44 149.37
  L 118.13 153.53"
/>
<path stroke="#9ba3e0" vector-effect="non-scaling-stroke" d="
  M 118.13 153.53
  C 116.87 160.32 116.23 172.33 121.54 176.71
  C 127.06 181.26 134.61 176.18 137.95 170.95
  Q 142.37 164.02 145.00 154.82"
/>
<path stroke="#9399ca" vector-effect="non-scaling-stroke" d="
  M 145.00 154.82
  L 146.43 149.51
  A 0.87 0.87 0.0 0 1 147.27 148.86
  L 183.67 148.86
  A 0.68 0.67 81.1 0 1 184.31 149.33
  L 186.44 156.02"
/>
<path stroke="#9ba3e0" vector-effect="non-scaling-stroke" d="
  M 186.44 156.02
  C 188.62 164.05 193.21 174.57 201.10 177.72
  C 205.20 179.36 209.75 177.90 211.48 173.97
  C 214.21 167.76 213.69 161.96 213.16 155.24"
/>
<path stroke="#9399ca" vector-effect="non-scaling-stroke" d="
  M 213.16 155.24
  L 212.53 149.51
  A 0.49 0.48 86.8 0 1 213.01 148.97
  L 220.79 149.07"
/>
<path stroke="#9ba3e0" vector-effect="non-scaling-stroke" d="
  M 220.79 149.07
  C 227.77 156.80 239.95 165.30 250.75 165.10
  C 258.26 164.97 260.72 159.88 257.18 153.49
  C 254.45 148.58 249.53 144.14 245.14 140.82"
/>
<path stroke="#9399ca" vector-effect="non-scaling-stroke" d="
  M 245.14 140.82
  Q 247.25 134.01 243.60 128.18
  Q 206.24 68.57 181.43 28.37
  Q 177.99 22.80 175.73 20.89
  C 169.75 15.86 161.81 15.73 155.60 20.28
  Q 153.17 22.06 148.44 29.76
  Q 126.52 65.41 86.93 128.69
  Q 83.46 134.24 85.68 140.49"
/>
<path stroke="#3341ac" vector-effect="non-scaling-stroke" d="
  M 245.14 140.82
  Q 240.72 149.79 230.17 148.82
  Q 226.96 148.53 220.79 149.07"
/>
<path stroke="#3341ac" vector-effect="non-scaling-stroke" d="
  M 213.16 155.24
  Q 202.22 154.94 191.36 155.28
  Q 189.85 155.33 186.44 156.02"
/>
<path stroke="#3341ac" vector-effect="non-scaling-stroke" d="
  M 145.00 154.82
  Q 134.60 154.60 124.48 154.39
  Q 122.30 154.34 118.13 153.53"
/>
<path stroke="#3341ac" vector-effect="non-scaling-stroke" d="
  M 110.71 149.04
  Q 105.41 148.28 99.75 148.73
  Q 89.87 149.53 85.68 140.49"
/>
<path stroke="#9ea0b1" vector-effect="non-scaling-stroke" d="
  M 155.66 212.80
  C 142.63 207.04 142.14 229.53 153.23 227.24
  Q 153.61 227.16 155.42 226.72
  A 1.85 1.85 0.0 0 1 156.75 226.91
  Q 157.55 227.36 159.19 227.55
  A 0.88 0.87 -86.5 0 0 160.17 226.68
  L 160.25 206.43
  A 0.99 0.99 0.0 0 0 159.27 205.44
  L 157.50 205.43
  A 1.15 1.14 -89.8 0 0 156.35 206.58
  L 156.33 212.37
  A 0.48 0.47 12.1 0 1 155.66 212.80"
/>
<path stroke="#9ea0b1" vector-effect="non-scaling-stroke" d="
  M 173.66 212.82
  C 160.65 207.13 160.25 229.56 171.30 227.23
  Q 171.68 227.15 173.48 226.70
  A 1.84 1.84 0.0 0 1 174.81 226.88
  Q 175.61 227.33 177.25 227.51
  A 0.88 0.87 -86.8 0 0 178.22 226.64
  L 178.22 206.45
  A 0.99 0.99 0.0 0 0 177.23 205.46
  L 175.47 205.46
  A 1.15 1.14 90.0 0 0 174.33 206.61
  L 174.33 212.39
  A 0.48 0.47 11.9 0 1 173.66 212.82"
/>
<path stroke="#9ea0b1" vector-effect="non-scaling-stroke" d="
  M 186.8522 207.5259
  A 2.42 2.03 -4.6 0 0 184.2772 205.6965
  A 2.42 2.03 -4.6 0 0 182.0278 207.9141
  A 2.42 2.03 -4.6 0 0 184.6028 209.7435
  A 2.42 2.03 -4.6 0 0 186.8522 207.5259"
/>
<path stroke="#9ea0b1" vector-effect="non-scaling-stroke" d="
  M 134.59 222.65
  Q 137.75 222.65 137.76 222.65
  A 1.10 1.10 0.0 0 1 138.62 223.34
  L 139.89 226.53
  A 1.38 1.38 0.0 0 0 141.17 227.39
  L 143.36 227.39
  A 0.76 0.75 80.1 0 0 144.07 226.37
  Q 140.68 217.44 137.15 208.60
  Q 136.17 206.16 134.59 206.16
  Q 133.01 206.16 132.03 208.60
  Q 128.51 217.44 125.12 226.37
  A 0.76 0.75 -80.1 0 0 125.83 227.39
  L 128.02 227.39
  A 1.38 1.38 0.0 0 0 129.30 226.53
  L 130.57 223.34
  A 1.10 1.10 0.0 0 1 131.43 222.65
  Q 131.44 222.65 134.59 222.65"
/>
<path stroke="#9ea0b1" vector-effect="non-scaling-stroke" d="
  M 186.5432 212.9872
  A 1.21 1.21 0.0 0 0 185.3374 211.7729
  L 183.6774 211.7672
  A 1.21 1.21 0.0 0 0 182.4632 212.9729
  L 182.4168 226.2728
  A 1.21 1.21 0.0 0 0 183.6226 227.4871
  L 185.2826 227.4928
  A 1.21 1.21 0.0 0 0 186.4968 226.2871
  L 186.5432 212.9872"
/>
<path stroke="#9ea0b1" vector-effect="non-scaling-stroke" d="
  M 202.95 224.16
  L 197.06 224.16
  A 3.40 3.39 75.0 0 1 194.12 222.46
  L 193.99 222.24
  A 0.90 0.89 74.9 0 1 194.76 220.90
  L 203.14 220.88
  A 0.82 0.81 -89.6 0 0 203.95 220.07
  C 203.97 216.86 203.12 212.38 199.04 211.95
  Q 190.20 211.01 190.07 219.66
  C 189.95 226.96 195.59 228.10 201.61 227.23
  A 2.18 2.17 -89.8 0 0 203.45 225.40
  L 203.57 224.99
  A 0.65 0.64 8.3 0 0 202.95 224.16"
/>
<path stroke="#4153ba" vector-effect="non-scaling-stroke" d="
  M 137.44 56.81
  L 118.83 86.67"
/>
<path stroke="#3a48b3" vector-effect="non-scaling-stroke" d="
  M 118.83 86.67
  L 108.02 103.63"
/>
<path stroke="#3341ac" vector-effect="non-scaling-stroke" d="
  M 108.02 103.63
  Q 100.15 116.76 92.12 129.60
  Q 89.78 133.34 90.53 137.66
  A 2.78 2.53 27.5 0 0 90.88 138.61
  Q 93.44 142.91 98.24 144.28
  A 3.48 3.43 -36.7 0 0 99.18 144.41
  C 104.85 144.38 107.69 144.74 112.74 144.42
  Q 114.92 144.29 121.25 144.60
  C 126.54 144.86 132.89 144.39 139.24 144.51
  Q 157.44 144.85 180.97 144.56
  C 182.99 144.54 185.12 144.80 187.81 144.76
  Q 198.25 144.59 209.50 144.51
  Q 229.80 144.35 231.52 144.26
  A 3.89 3.75 -54.9 0 0 232.50 144.07
  Q 237.17 142.46 237.92 141.63
  Q 242.95 136.03 239.38 130.36
  Q 232.53 119.48 225.74 108.39"
/>
<path stroke="#3a48b3" vector-effect="non-scaling-stroke" d="
  M 225.74 108.39
  L 211.80 86.43"
/>
<path stroke="#4153ba" vector-effect="non-scaling-stroke" d="
  M 211.80 86.43
  L 192.19 55.43"
/>
<path stroke="#4a61bf" vector-effect="non-scaling-stroke" d="
  M 192.19 55.43
  Q 184.22 42.58 176.13 29.88
  C 172.02 23.44 163.65 22.11 157.64 26.32
  Q 155.74 27.65 151.76 34.03
  Q 144.59 45.53 137.44 56.81"
/>
<path stroke="#607de3" vector-effect="non-scaling-stroke" d="
  M 192.19 55.43
  Q 164.92 59.79 137.44 56.81"
/>
<path stroke="#5064d7" vector-effect="non-scaling-stroke" d="
  M 211.80 86.43
  Q 200.33 90.13 188.62 92.20"
/>
<path stroke="#2d3c85" vector-effect="non-scaling-stroke" d="
  M 188.62 92.20
  Q 191.25 85.45 187.90 79.64
  C 186.46 77.16 183.20 76.16 180.86 78.32
  C 177.44 81.49 177.08 87.25 178.38 91.42"
/>
<path stroke="#5064d7" vector-effect="non-scaling-stroke" d="
  M 178.38 91.42
  Q 165.04 93.08 151.69 92.98"
/>
<path stroke="#2d3c85" vector-effect="non-scaling-stroke" d="
  M 151.69 92.98
  Q 154.55 86.98 151.88 80.78
  C 150.18 76.81 145.76 75.57 143.21 79.65
  Q 140.02 84.72 141.60 90.70"
/>
<path stroke="#5064d7" vector-effect="non-scaling-stroke" d="
  M 141.60 90.70
  L 118.83 86.67"
/>
<path stroke="#26317e" vector-effect="non-scaling-stroke" d="
  M 151.69 92.98
  C 148.45 98.89 142.78 96.04 141.60 90.70"
/>
<path stroke="#4252c9" vector-effect="non-scaling-stroke" d="
  M 225.74 108.39
  C 209.19 113.34 193.11 113.45 176.09 111.92"
/>
<path stroke="#252e71" vector-effect="non-scaling-stroke" d="
  M 176.09 111.92
  Q 178.93 110.40 178.56 108.31
  A 1.53 1.51 -21.4 0 0 176.24 107.32
  C 168.15 112.41 162.52 112.38 154.53 107.23
  A 1.53 1.53 0.0 0 0 152.26 107.97
  Q 151.68 109.51 153.14 110.70"
/>
<path stroke="#4252c9" vector-effect="non-scaling-stroke" d="
  M 153.14 110.70
  Q 130.31 110.25 108.02 103.63"
/>
<path stroke="#26317e" vector-effect="non-scaling-stroke" d="
  M 188.62 92.20
  C 185.97 98.37 180.17 97.18 178.38 91.42"
/>
<path stroke="#1e276a" vector-effect="non-scaling-stroke" d="
  M 153.14 110.70
  Q 164.30 119.14 176.09 111.92"
/>
<path stroke="#9ea0b1" vector-effect="non-scaling-stroke" d="
  M 152.9952 214.9201
  A 4.81 3.55 -89.7 0 0 149.4200 219.7114
  A 4.81 3.55 -89.7 0 0 152.9448 224.5399
  A 4.81 3.55 -89.7 0 0 156.5200 219.7486
  A 4.81 3.55 -89.7 0 0 152.9952 214.9201"
/>
<path stroke="#9ea0b1" vector-effect="non-scaling-stroke" d="
  M 174.4408 218.1461
  A 2.95 2.95 0.0 0 0 171.5849 215.1048
  L 170.7853 215.0797
  A 2.95 2.95 0.0 0 0 167.7441 217.9356
  L 167.6392 221.2739
  A 2.95 2.95 0.0 0 0 170.4951 224.3152
  L 171.2947 224.3403
  A 2.95 2.95 0.0 0 0 174.3359 221.4844
  L 174.4408 218.1461"
/>
<path stroke="#9ea0b1" vector-effect="non-scaling-stroke" d="
  M 132.12 218.75
  A 0.33 0.33 0.0 0 0 132.44 219.18
  L 136.83 219.12
  A 0.33 0.33 0.0 0 0 137.14 218.68
  L 134.85 212.47
  A 0.33 0.33 0.0 0 0 134.23 212.48
  L 132.12 218.75"
/>
<path stroke="#9ea0b1" vector-effect="non-scaling-stroke" d="
  M 194.54 218.06
  L 199.90 217.98
  A 0.43 0.43 0.0 0 0 200.32 217.54
  L 200.32 217.43
  A 2.90 2.78 -0.9 0 0 197.37 214.70
  L 196.95 214.70
  A 2.90 2.78 -0.9 0 0 194.10 217.53
  L 194.10 217.64
  A 0.43 0.43 0.0 0 0 194.54 218.06"
/>
</g>
<path fill="#fbfbfe" d="
  M 300.00 0.00
  L 300.00 242.00
  L 0.00 242.00
  L 0.00 0.00
  L 300.00 0.00
  Z
  M 85.68 140.49
  C 81.24 144.75 76.49 148.40 73.71 153.19
  C 71.23 157.45 70.95 162.93 76.73 164.53
  Q 81.99 165.97 88.85 163.53
  Q 98.81 159.98 107.29 151.77
  Q 108.89 150.22 110.71 149.04
  L 117.95 148.86
  A 0.47 0.47 0.0 0 1 118.44 149.37
  L 118.13 153.53
  C 116.87 160.32 116.23 172.33 121.54 176.71
  C 127.06 181.26 134.61 176.18 137.95 170.95
  Q 142.37 164.02 145.00 154.82
  L 146.43 149.51
  A 0.87 0.87 0.0 0 1 147.27 148.86
  L 183.67 148.86
  A 0.68 0.67 81.1 0 1 184.31 149.33
  L 186.44 156.02
  C 188.62 164.05 193.21 174.57 201.10 177.72
  C 205.20 179.36 209.75 177.90 211.48 173.97
  C 214.21 167.76 213.69 161.96 213.16 155.24
  L 212.53 149.51
  A 0.49 0.48 86.8 0 1 213.01 148.97
  L 220.79 149.07
  C 227.77 156.80 239.95 165.30 250.75 165.10
  C 258.26 164.97 260.72 159.88 257.18 153.49
  C 254.45 148.58 249.53 144.14 245.14 140.82
  Q 247.25 134.01 243.60 128.18
  Q 206.24 68.57 181.43 28.37
  Q 177.99 22.80 175.73 20.89
  C 169.75 15.86 161.81 15.73 155.60 20.28
  Q 153.17 22.06 148.44 29.76
  Q 126.52 65.41 86.93 128.69
  Q 83.46 134.24 85.68 140.49
  Z
  M 155.66 212.80
  C 142.63 207.04 142.14 229.53 153.23 227.24
  Q 153.61 227.16 155.42 226.72
  A 1.85 1.85 0.0 0 1 156.75 226.91
  Q 157.55 227.36 159.19 227.55
  A 0.88 0.87 -86.5 0 0 160.17 226.68
  L 160.25 206.43
  A 0.99 0.99 0.0 0 0 159.27 205.44
  L 157.50 205.43
  A 1.15 1.14 -89.8 0 0 156.35 206.58
  L 156.33 212.37
  A 0.48 0.47 12.1 0 1 155.66 212.80
  Z
  M 173.66 212.82
  C 160.65 207.13 160.25 229.56 171.30 227.23
  Q 171.68 227.15 173.48 226.70
  A 1.84 1.84 0.0 0 1 174.81 226.88
  Q 175.61 227.33 177.25 227.51
  A 0.88 0.87 -86.8 0 0 178.22 226.64
  L 178.22 206.45
  A 0.99 0.99 0.0 0 0 177.23 205.46
  L 175.47 205.46
  A 1.15 1.14 90.0 0 0 174.33 206.61
  L 174.33 212.39
  A 0.48 0.47 11.9 0 1 173.66 212.82
  Z
  M 186.8522 207.5259
  A 2.42 2.03 -4.6 0 0 184.2772 205.6965
  A 2.42 2.03 -4.6 0 0 182.0278 207.9141
  A 2.42 2.03 -4.6 0 0 184.6028 209.7435
  A 2.42 2.03 -4.6 0 0 186.8522 207.5259
  Z
  M 134.59 222.65
  Q 137.75 222.65 137.76 222.65
  A 1.10 1.10 0.0 0 1 138.62 223.34
  L 139.89 226.53
  A 1.38 1.38 0.0 0 0 141.17 227.39
  L 143.36 227.39
  A 0.76 0.75 80.1 0 0 144.07 226.37
  Q 140.68 217.44 137.15 208.60
  Q 136.17 206.16 134.59 206.16
  Q 133.01 206.16 132.03 208.60
  Q 128.51 217.44 125.12 226.37
  A 0.76 0.75 -80.1 0 0 125.83 227.39
  L 128.02 227.39
  A 1.38 1.38 0.0 0 0 129.30 226.53
  L 130.57 223.34
  A 1.10 1.10 0.0 0 1 131.43 222.65
  Q 131.44 222.65 134.59 222.65
  Z
  M 186.5432 212.9872
  A 1.21 1.21 0.0 0 0 185.3374 211.7729
  L 183.6774 211.7672
  A 1.21 1.21 0.0 0 0 182.4632 212.9729
  L 182.4168 226.2728
  A 1.21 1.21 0.0 0 0 183.6226 227.4871
  L 185.2826 227.4928
  A 1.21 1.21 0.0 0 0 186.4968 226.2871
  L 186.5432 212.9872
  Z
  M 202.95 224.16
  L 197.06 224.16
  A 3.40 3.39 75.0 0 1 194.12 222.46
  L 193.99 222.24
  A 0.90 0.89 74.9 0 1 194.76 220.90
  L 203.14 220.88
  A 0.82 0.81 -89.6 0 0 203.95 220.07
  C 203.97 216.86 203.12 212.38 199.04 211.95
  Q 190.20 211.01 190.07 219.66
  C 189.95 226.96 195.59 228.10 201.61 227.23
  A 2.18 2.17 -89.8 0 0 203.45 225.40
  L 203.57 224.99
  A 0.65 0.64 8.3 0 0 202.95 224.16
  Z"
/>
<path fill="#2b3796" d="
  M 245.14 140.82
  Q 240.72 149.79 230.17 148.82
  Q 226.96 148.53 220.79 149.07
  L 213.01 148.97
  A 0.49 0.48 86.8 0 0 212.53 149.51
  L 213.16 155.24
  Q 202.22 154.94 191.36 155.28
  Q 189.85 155.33 186.44 156.02
  L 184.31 149.33
  A 0.68 0.67 81.1 0 0 183.67 148.86
  L 147.27 148.86
  A 0.87 0.87 0.0 0 0 146.43 149.51
  L 145.00 154.82
  Q 134.60 154.60 124.48 154.39
  Q 122.30 154.34 118.13 153.53
  L 118.44 149.37
  A 0.47 0.47 0.0 0 0 117.95 148.86
  L 110.71 149.04
  Q 105.41 148.28 99.75 148.73
  Q 89.87 149.53 85.68 140.49
  Q 83.46 134.24 86.93 128.69
  Q 126.52 65.41 148.44 29.76
  Q 153.17 22.06 155.60 20.28
  C 161.81 15.73 169.75 15.86 175.73 20.89
  Q 177.99 22.80 181.43 28.37
  Q 206.24 68.57 243.60 128.18
  Q 247.25 134.01 245.14 140.82
  Z
  M 137.44 56.81
  L 118.83 86.67
  L 108.02 103.63
  Q 100.15 116.76 92.12 129.60
  Q 89.78 133.34 90.53 137.66
  A 2.78 2.53 27.5 0 0 90.88 138.61
  Q 93.44 142.91 98.24 144.28
  A 3.48 3.43 -36.7 0 0 99.18 144.41
  C 104.85 144.38 107.69 144.74 112.74 144.42
  Q 114.92 144.29 121.25 144.60
  C 126.54 144.86 132.89 144.39 139.24 144.51
  Q 157.44 144.85 180.97 144.56
  C 182.99 144.54 185.12 144.80 187.81 144.76
  Q 198.25 144.59 209.50 144.51
  Q 229.80 144.35 231.52 144.26
  A 3.89 3.75 -54.9 0 0 232.50 144.07
  Q 237.17 142.46 237.92 141.63
  Q 242.95 136.03 239.38 130.36
  Q 232.53 119.48 225.74 108.39
  L 211.80 86.43
  L 192.19 55.43
  Q 184.22 42.58 176.13 29.88
  C 172.02 23.44 163.65 22.11 157.64 26.32
  Q 155.74 27.65 151.76 34.03
  Q 144.59 45.53 137.44 56.81
  Z"
/>
<path fill="#688ae8" d="
  M 192.19 55.43
  Q 164.92 59.79 137.44 56.81
  Q 144.59 45.53 151.76 34.03
  Q 155.74 27.65 157.64 26.32
  C 163.65 22.11 172.02 23.44 176.13 29.88
  Q 184.22 42.58 192.19 55.43
  Z"
/>
<path fill="#576fdd" d="
  M 211.80 86.43
  Q 200.33 90.13 188.62 92.20
  Q 191.25 85.45 187.90 79.64
  C 186.46 77.16 183.20 76.16 180.86 78.32
  C 177.44 81.49 177.08 87.25 178.38 91.42
  Q 165.04 93.08 151.69 92.98
  Q 154.55 86.98 151.88 80.78
  C 150.18 76.81 145.76 75.57 143.21 79.65
  Q 140.02 84.72 141.60 90.70
  L 118.83 86.67
  L 137.44 56.81
  Q 164.92 59.79 192.19 55.43
  L 211.80 86.43
  Z"
/>
<path fill="#03082c" d="
  M 151.69 92.98
  C 148.45 98.89 142.78 96.04 141.60 90.70
  Q 140.02 84.72 143.21 79.65
  C 145.76 75.57 150.18 76.81 151.88 80.78
  Q 154.55 86.98 151.69 92.98
  Z"
/>
<path fill="#03082c" d="
  M 188.62 92.20
  C 185.97 98.37 180.17 97.18 178.38 91.42
  C 177.08 87.25 177.44 81.49 180.86 78.32
  C 183.20 76.16 186.46 77.16 187.90 79.64
  Q 191.25 85.45 188.62 92.20
  Z"
/>
<path fill="#4859d0" d="
  M 225.74 108.39
  C 209.19 113.34 193.11 113.45 176.09 111.92
  Q 178.93 110.40 178.56 108.31
  A 1.53 1.51 -21.4 0 0 176.24 107.32
  C 168.15 112.41 162.52 112.38 154.53 107.23
  A 1.53 1.53 0.0 0 0 152.26 107.97
  Q 151.68 109.51 153.14 110.70
  Q 130.31 110.25 108.02 103.63
  L 118.83 86.67
  L 141.60 90.70
  C 142.78 96.04 148.45 98.89 151.69 92.98
  Q 165.04 93.08 178.38 91.42
  C 180.17 97.18 185.97 98.37 188.62 92.20
  Q 200.33 90.13 211.80 86.43
  L 225.74 108.39
  Z"
/>
<path fill="#3b4ac2" d="
  M 153.14 110.70
  Q 164.30 119.14 176.09 111.92
  C 193.11 113.45 209.19 113.34 225.74 108.39
  Q 232.53 119.48 239.38 130.36
  Q 242.95 136.03 237.92 141.63
  Q 237.17 142.46 232.50 144.07
  A 3.89 3.75 -54.9 0 1 231.52 144.26
  Q 229.80 144.35 209.50 144.51
  Q 198.25 144.59 187.81 144.76
  C 185.12 144.80 182.99 144.54 180.97 144.56
  Q 157.44 144.85 139.24 144.51
  C 132.89 144.39 126.54 144.86 121.25 144.60
  Q 114.92 144.29 112.74 144.42
  C 107.69 144.74 104.85 144.38 99.18 144.41
  A 3.48 3.43 -36.7 0 1 98.24 144.28
  Q 93.44 142.91 90.88 138.61
  A 2.78 2.53 27.5 0 1 90.53 137.66
  Q 89.78 133.34 92.12 129.60
  Q 100.15 116.76 108.02 103.63
  Q 130.31 110.25 153.14 110.70
  Z"
/>
<path fill="#010311" d="
  M 176.09 111.92
  Q 164.30 119.14 153.14 110.70
  Q 151.68 109.51 152.26 107.97
  A 1.53 1.53 0.0 0 1 154.53 107.23
  C 162.52 112.38 168.15 112.41 176.24 107.32
  A 1.53 1.51 -21.4 0 1 178.56 108.31
  Q 178.93 110.40 176.09 111.92
  Z"
/>
<path fill="#3b4ac2" d="
  M 85.68 140.49
  Q 89.87 149.53 99.75 148.73
  Q 105.41 148.28 110.71 149.04
  Q 108.89 150.22 107.29 151.77
  Q 98.81 159.98 88.85 163.53
  Q 81.99 165.97 76.73 164.53
  C 70.95 162.93 71.23 157.45 73.71 153.19
  C 76.49 148.40 81.24 144.75 85.68 140.49
  Z"
/>
<path fill="#3b4ac2" d="
  M 245.14 140.82
  C 249.53 144.14 254.45 148.58 257.18 153.49
  C 260.72 159.88 258.26 164.97 250.75 165.10
  C 239.95 165.30 227.77 156.80 220.79 149.07
  Q 226.96 148.53 230.17 148.82
  Q 240.72 149.79 245.14 140.82
  Z"
/>
<path fill="#3b4ac2" d="
  M 145.00 154.82
  Q 142.37 164.02 137.95 170.95
  C 134.61 176.18 127.06 181.26 121.54 176.71
  C 116.23 172.33 116.87 160.32 118.13 153.53
  Q 122.30 154.34 124.48 154.39
  Q 134.60 154.60 145.00 154.82
  Z"
/>
<path fill="#3b4ac2" d="
  M 213.16 155.24
  C 213.69 161.96 214.21 167.76 211.48 173.97
  C 209.75 177.90 205.20 179.36 201.10 177.72
  C 193.21 174.57 188.62 164.05 186.44 156.02
  Q 189.85 155.33 191.36 155.28
  Q 202.22 154.94 213.16 155.24
  Z"
/>
<path fill="#414563" d="
  M 155.66 212.80
  A 0.48 0.47 12.1 0 0 156.33 212.37
  L 156.35 206.58
  A 1.15 1.14 -89.8 0 1 157.50 205.43
  L 159.27 205.44
  A 0.99 0.99 0.0 0 1 160.25 206.43
  L 160.17 226.68
  A 0.88 0.87 -86.5 0 1 159.19 227.55
  Q 157.55 227.36 156.75 226.91
  A 1.85 1.85 0.0 0 0 155.42 226.72
  Q 153.61 227.16 153.23 227.24
  C 142.14 229.53 142.63 207.04 155.66 212.80
  Z
  M 152.9952 214.9201
  A 4.81 3.55 -89.7 0 0 149.4200 219.7114
  A 4.81 3.55 -89.7 0 0 152.9448 224.5399
  A 4.81 3.55 -89.7 0 0 156.5200 219.7486
  A 4.81 3.55 -89.7 0 0 152.9952 214.9201
  Z"
/>
<path fill="#414563" d="
  M 174.33 212.39
  L 174.33 206.61
  A 1.15 1.14 -90.0 0 1 175.47 205.46
  L 177.23 205.46
  A 0.99 0.99 0.0 0 1 178.22 206.45
  L 178.22 226.64
  A 0.88 0.87 -86.8 0 1 177.25 227.51
  Q 175.61 227.33 174.81 226.88
  A 1.84 1.84 0.0 0 0 173.48 226.70
  Q 171.68 227.15 171.30 227.23
  C 160.25 229.56 160.65 207.13 173.66 212.82
  A 0.48 0.47 11.9 0 0 174.33 212.39
  Z
  M 174.4408 218.1461
  A 2.95 2.95 0.0 0 0 171.5849 215.1048
  L 170.7853 215.0797
  A 2.95 2.95 0.0 0 0 167.7441 217.9356
  L 167.6392 221.2739
  A 2.95 2.95 0.0 0 0 170.4951 224.3152
  L 171.2947 224.3403
  A 2.95 2.95 0.0 0 0 174.3359 221.4844
  L 174.4408 218.1461
  Z"
/>
<ellipse fill="#414563" cx="0.00" cy="0.00" transform="translate(184.44,207.72) rotate(-4.6)" rx="2.42" ry="2.03"/>
<path fill="#414563" d="
  M 134.59 206.16
  Q 136.17 206.16 137.15 208.60
  Q 140.68 217.44 144.07 226.37
  A 0.76 0.75 80.1 0 1 143.36 227.39
  L 141.17 227.39
  A 1.38 1.38 0.0 0 1 139.89 226.53
  L 138.62 223.34
  A 1.10 1.10 0.0 0 0 137.76 222.65
  Q 137.75 222.65 134.59 222.65
  Q 131.44 222.65 131.43 222.65
  A 1.10 1.10 0.0 0 0 130.57 223.34
  L 129.30 226.53
  A 1.38 1.38 0.0 0 1 128.02 227.39
  L 125.83 227.39
  A 0.76 0.75 -80.1 0 1 125.12 226.37
  Q 128.51 217.44 132.03 208.60
  Q 133.01 206.16 134.59 206.16
  Z
  M 132.12 218.75
  A 0.33 0.33 0.0 0 0 132.44 219.18
  L 136.83 219.12
  A 0.33 0.33 0.0 0 0 137.14 218.68
  L 134.85 212.47
  A 0.33 0.33 0.0 0 0 134.23 212.48
  L 132.12 218.75
  Z"
/>
<rect fill="#414563" x="-2.04" y="-7.86" transform="translate(184.48,219.63) rotate(0.2)" width="4.08" height="15.72" rx="1.21"/>
<path fill="#414563" d="
  M 202.95 224.16
  A 0.65 0.64 8.3 0 1 203.57 224.99
  L 203.45 225.40
  A 2.18 2.17 -89.8 0 1 201.61 227.23
  C 195.59 228.10 189.95 226.96 190.07 219.66
  Q 190.20 211.01 199.04 211.95
  C 203.12 212.38 203.97 216.86 203.95 220.07
  A 0.82 0.81 -89.6 0 1 203.14 220.88
  L 194.76 220.90
  A 0.90 0.89 74.9 0 0 193.99 222.24
  L 194.12 222.46
  A 3.40 3.39 75.0 0 0 197.06 224.16
  L 202.95 224.16
  Z
  M 194.54 218.06
  L 199.90 217.98
  A 0.43 0.43 0.0 0 0 200.32 217.54
  L 200.32 217.43
  A 2.90 2.78 -0.9 0 0 197.37 214.70
  L 196.95 214.70
  A 2.90 2.78 -0.9 0 0 194.10 217.53
  L 194.10 217.64
  A 0.43 0.43 0.0 0 0 194.54 218.06
  Z"
/>
<path fill="#fbfbfe" d="
  M 132.12 218.75
  L 134.23 212.48
  A 0.33 0.33 0.0 0 1 134.85 212.47
  L 137.14 218.68
  A 0.33 0.33 0.0 0 1 136.83 219.12
  L 132.44 219.18
  A 0.33 0.33 0.0 0 1 132.12 218.75
  Z"
/>
<path fill="#fbfbfe" d="
  M 194.54 218.06
  A 0.43 0.43 0.0 0 1 194.10 217.64
  L 194.10 217.53
  A 2.90 2.78 -0.9 0 1 196.95 214.70
  L 197.37 214.70
  A 2.90 2.78 -0.9 0 1 200.32 217.43
  L 200.32 217.54
  A 0.43 0.43 0.0 0 1 199.90 217.98
  L 194.54 218.06
  Z"
/>
<ellipse fill="#fbfbfe" cx="0.00" cy="0.00" transform="translate(152.97,219.73) rotate(-89.7)" rx="4.81" ry="3.55"/>
<rect fill="#fbfbfe" x="-3.35" y="-4.62" transform="translate(171.04,219.71) rotate(1.8)" width="6.70" height="9.24" rx="2.95"/>
</svg>
