<?xml version="1.0" encoding="UTF-8"?>
<svg id="Layer_1" xmlns="http://www.w3.org/2000/svg" version="1.1" viewBox="0 0 200 116.04">
  <!-- Generator: Adobe Illustrator 30.0.0, SVG Export Plug-In . SVG Version: 2.1.1 Build 123)  -->
  <defs>
    <style>
      .st0 {
        fill: #fff;
      }

      .st1 {
        fill: #ee3124;
      }
    </style>
  </defs>
  <path class="st1" d="M175.58,15.1c-8.11-7.95-19.8-13.63-35.54-13.63s-28.51,4.97-35.54,13.63c-1.85,2.28-3.49,4.83-5.02,8.4-.49-.68-1.48-3.15-1.99-3.83-1.28-2.08-2.88-4.16-4.96-6.15-6.12-5.81-17.22-11.94-36.77-11.96-8.94,0-21.53,1.14-31.32,7.6-13.92,9.1-15.76,22.51-15.93,28.98l37.52.03c0-.07-.02-.13-.02-.2,0-5.14,4.17-9.3,9.31-9.29,5.14,0,9.3,4.17,9.29,9.31,0,5.14-4.49,13.73-18.15,8.23l-.02,21.82s0,1.71,0,1.71c13.67-5.48,18.23,3.08,18.23,8.22,0,5.14-4.17,9.3-9.31,9.29-5.14,0-9.3-4.17-9.29-9.31,0-.07.02-.13.02-.2l-37.52-.03c.16,6.46,1.97,19.88,15.88,29.01,9.77,6.47,22.36,7.64,31.3,7.65,19.55.02,30.66-6.1,36.79-11.9.56-.53,3.59-2.96,7.17-7.1,1.42,1.95,3.01,3.83,4.8,5.6,8.11,7.95,19.8,13.63,35.54,13.63s27.43-5.68,35.54-13.63c12.98-12.82,15.9-31.64,15.9-43s-2.92-30.02-15.9-42.84Z"/>
  <g>
    <path class="st0" d="M84.97,32.28c-3.46,0-6.28,2.82-6.28,6.28s2.81,6.27,6.28,6.27,6.28-2.81,6.28-6.27-2.82-6.28-6.28-6.28Z"/>
    <path class="st0" d="M163.84,65.24c-3.46,0-6.28,2.82-6.28,6.28s2.81,6.27,6.28,6.27,6.28-2.81,6.28-6.27-2.82-6.28-6.28-6.28Z"/>
    <path class="st0" d="M89.2,48.05h-8.56c-.79,0-.79.42-.79,1.07v26.81c0,.73.04,1.18.84,1.18h8.56c.79,0,.9-.51.9-1.01v-26.98c0-.82-.22-1.07-.95-1.07Z"/>
    <path class="st0" d="M122.23,48.08h-8.62c-.84,0-.84.8-.84,1.07v1.92c-1.35-1.8-3.93-3.32-7.16-3.32-7.53,0-13.44,6.52-13.44,14.84,0,8.94,5.47,14.95,13.6,14.95,2.78,0,5.91-1,7.5-3.19v1.9c0,.54.38.9.95.9h7.95c.56,0,.84-.4.84-1.18v-26.98c0-.54-.32-.9-.79-.9ZM107.56,68.23c-3.03,0-5.32-2.31-5.32-5.37,0-3.35,2.14-5.59,5.32-5.59s5.2,2.25,5.2,5.48-2.19,5.48-5.2,5.48Z"/>
    <path class="st0" d="M143.15,47.69c-3.04,0-5.75,1.14-7.22,2.93v-11.94c0-.05,0-.11,0-.16v-4.38c0-.79-.22-1.04-.93-1.04h-8.33c-.76,0-.76.41-.76,1.04v26.05c0,.1,0,.19,0,.28v15.55c0,.65,0,1.12.84,1.12h6.83c1.22,0,1.53-.61,1.62-.98l.43-1.86c1.69,1.98,4.64,3.17,7.92,3.17,7.9,0,13.21-6.01,13.21-14.95s-5.47-14.84-13.6-14.84ZM141.42,68.18c-3.01,0-5.2-2.31-5.2-5.48s2.09-5.48,5.2-5.48,5.26,2.25,5.26,5.48-2.26,5.48-5.26,5.48Z"/>
  </g>
</svg>